<?xml version="1.0" standalone="no"?><!DOCTYPE svg PUBLIC "-//W3C//DTD SVG 1.1//EN" "http://www.w3.org/Graphics/SVG/1.1/DTD/svg11.dtd"><svg t="1650951042780" class="icon" viewBox="0 0 1024 1024" version="1.1" xmlns="http://www.w3.org/2000/svg" p-id="1479" data-spm-anchor-id="a313x.7781069.0.i3" xmlns:xlink="http://www.w3.org/1999/xlink" width="200" height="200"><defs><style type="text/css">@font-face { font-family: feedback-iconfont; src: url("//at.alicdn.com/t/font_1031158_u69w8yhxdu.woff2?t=1630033759944") format("woff2"), url("//at.alicdn.com/t/font_1031158_u69w8yhxdu.woff?t=1630033759944") format("woff"), url("//at.alicdn.com/t/font_1031158_u69w8yhxdu.ttf?t=1630033759944") format("truetype"); }
</style></defs><path d="M82.72 557.216a63.968 63.968 0 0 1 0-90.432L466.784 82.72c24.96-24.96 65.472-24.96 90.432 0l384.064 384.064c24.96 24.96 24.96 65.472 0 90.432L557.216 941.28c-24.96 24.96-65.472 24.96-90.432 0L82.72 557.216z" fill="#1296db" p-id="1480" data-spm-anchor-id="a313x.7781069.0.i0" class="selected"></path><path d="M388.8 161.984l-38.912 38.88 100.448 100.448a68.032 68.032 0 0 0 37.664 92.352v245.696a68.032 68.032 0 1 0 55.008 3.104v-248.48l96 96a68 68 0 1 0 41.056-36.704l-103.104-103.136a68 68 0 0 0-85.12-85.12l-103.04-103.04z" fill="#ffffff" p-id="1481" data-spm-anchor-id="a313x.7781069.0.i2" class=""></path></svg>